<mxfile host="Electron" modified="2023-08-20T16:14:00.241Z" agent="Mozilla/5.0 (Windows NT 10.0; Win64; x64) AppleWebKit/537.36 (KHTML, like Gecko) draw.io/21.6.8 Chrome/114.0.5735.289 Electron/25.5.0 Safari/537.36" etag="ZKLpgHQF0uoRFu3euMOT" version="21.6.8" type="device">
  <diagram name="Page-1" id="b520641d-4fe3-3701-9064-5fc419738815">
    <mxGraphModel dx="1098" dy="821" grid="1" gridSize="10" guides="1" tooltips="1" connect="1" arrows="1" fold="1" page="1" pageScale="1" pageWidth="1100" pageHeight="850" background="none" math="0" shadow="0">
      <root>
        <mxCell id="0" />
        <mxCell id="1" parent="0" />
        <mxCell id="RhfqdFK_2u-JBd3pKtDQ-1" value="LV Mixer" style="swimlane;fontStyle=0;childLayout=stackLayout;horizontal=1;startSize=30;horizontalStack=0;resizeParent=1;resizeParentMax=0;resizeLast=0;collapsible=1;marginBottom=0;whiteSpace=wrap;html=1;fillColor=#6a00ff;fontColor=#ffffff;strokeColor=#3700CC;swimlaneLine=1;glass=0;shadow=0;rounded=0;" parent="1" vertex="1">
          <mxGeometry x="150" y="160" width="250" height="210" as="geometry" />
        </mxCell>
        <mxCell id="rb23Qd6nBjwukMvG9wRu-15" value="2x Netherrack Dust" style="text;strokeColor=#82b366;fillColor=#d5e8d4;align=left;verticalAlign=middle;spacingLeft=4;spacingRight=4;overflow=hidden;points=[[0,0.5],[1,0.5]];portConstraint=eastwest;rotatable=0;whiteSpace=wrap;html=1;fontColor=#000000;" vertex="1" parent="RhfqdFK_2u-JBd3pKtDQ-1">
          <mxGeometry y="30" width="250" height="30" as="geometry" />
        </mxCell>
        <mxCell id="RhfqdFK_2u-JBd3pKtDQ-2" value="1x Fine Soulsand" style="text;strokeColor=#82b366;fillColor=#d5e8d4;align=left;verticalAlign=middle;spacingLeft=4;spacingRight=4;overflow=hidden;points=[[0,0.5],[1,0.5]];portConstraint=eastwest;rotatable=0;whiteSpace=wrap;html=1;fontColor=#000000;" parent="RhfqdFK_2u-JBd3pKtDQ-1" vertex="1">
          <mxGeometry y="60" width="250" height="30" as="geometry" />
        </mxCell>
        <mxCell id="rb23Qd6nBjwukMvG9wRu-16" value="1000mb Lava" style="text;strokeColor=#6c8ebf;fillColor=#dae8fc;align=left;verticalAlign=middle;spacingLeft=4;spacingRight=4;overflow=hidden;points=[[0,0.5],[1,0.5]];portConstraint=eastwest;rotatable=0;whiteSpace=wrap;html=1;fontColor=#000000;" vertex="1" parent="RhfqdFK_2u-JBd3pKtDQ-1">
          <mxGeometry y="90" width="250" height="30" as="geometry" />
        </mxCell>
        <mxCell id="RhfqdFK_2u-JBd3pKtDQ-3" value="250mb Energized Glowstone" style="text;strokeColor=#6c8ebf;fillColor=#dae8fc;align=left;verticalAlign=middle;spacingLeft=4;spacingRight=4;overflow=hidden;points=[[0,0.5],[1,0.5]];portConstraint=eastwest;rotatable=0;whiteSpace=wrap;html=1;fontColor=#000000;" parent="RhfqdFK_2u-JBd3pKtDQ-1" vertex="1">
          <mxGeometry y="120" width="250" height="30" as="geometry" />
        </mxCell>
        <mxCell id="RhfqdFK_2u-JBd3pKtDQ-4" value="30s @ 30 EU/t" style="text;strokeColor=#d79b00;fillColor=#ffe6cc;align=left;verticalAlign=middle;spacingLeft=4;spacingRight=4;overflow=hidden;points=[[0,0.5],[1,0.5]];portConstraint=eastwest;rotatable=0;whiteSpace=wrap;html=1;fontColor=#000000;" parent="RhfqdFK_2u-JBd3pKtDQ-1" vertex="1">
          <mxGeometry y="150" width="250" height="30" as="geometry" />
        </mxCell>
        <mxCell id="RhfqdFK_2u-JBd3pKtDQ-7" value="1500mb Nether Sludge" style="text;html=1;strokeColor=#001DBC;fillColor=#0050ef;align=left;verticalAlign=middle;whiteSpace=wrap;rounded=0;spacingLeft=4;spacingRight=4;fontColor=#ffffff;points=[[0,0.5,0,0,0],[1,0.5,0,0,0]];" parent="RhfqdFK_2u-JBd3pKtDQ-1" vertex="1">
          <mxGeometry y="180" width="250" height="30" as="geometry" />
        </mxCell>
        <mxCell id="rb23Qd6nBjwukMvG9wRu-17" value="Gas Enrichment Chamber" style="swimlane;fontStyle=0;childLayout=stackLayout;horizontal=1;startSize=30;horizontalStack=0;resizeParent=1;resizeParentMax=0;resizeLast=0;collapsible=1;marginBottom=0;whiteSpace=wrap;html=1;fillColor=#6a00ff;fontColor=#ffffff;strokeColor=#3700CC;swimlaneLine=1;glass=0;shadow=0;rounded=0;" vertex="1" parent="1">
          <mxGeometry x="480" y="160" width="250" height="150" as="geometry" />
        </mxCell>
        <mxCell id="rb23Qd6nBjwukMvG9wRu-19" value="1000mb Nether Sludge" style="text;strokeColor=#6c8ebf;fillColor=#dae8fc;align=left;verticalAlign=middle;spacingLeft=4;spacingRight=4;overflow=hidden;points=[[0,0.5],[1,0.5]];portConstraint=eastwest;rotatable=0;whiteSpace=wrap;html=1;fontColor=#000000;" vertex="1" parent="rb23Qd6nBjwukMvG9wRu-17">
          <mxGeometry y="30" width="250" height="30" as="geometry" />
        </mxCell>
        <mxCell id="rb23Qd6nBjwukMvG9wRu-23" value="10kb Air" style="text;strokeColor=#6c8ebf;fillColor=#dae8fc;align=left;verticalAlign=middle;spacingLeft=4;spacingRight=4;overflow=hidden;points=[[0,0.5],[1,0.5]];portConstraint=eastwest;rotatable=0;whiteSpace=wrap;html=1;fontColor=#000000;" vertex="1" parent="rb23Qd6nBjwukMvG9wRu-17">
          <mxGeometry y="60" width="250" height="30" as="geometry" />
        </mxCell>
        <mxCell id="rb23Qd6nBjwukMvG9wRu-20" value="10s @ 64 EU/t" style="text;strokeColor=#d79b00;fillColor=#ffe6cc;align=left;verticalAlign=middle;spacingLeft=4;spacingRight=4;overflow=hidden;points=[[0,0.5],[1,0.5]];portConstraint=eastwest;rotatable=0;whiteSpace=wrap;html=1;fontColor=#000000;" vertex="1" parent="rb23Qd6nBjwukMvG9wRu-17">
          <mxGeometry y="90" width="250" height="30" as="geometry" />
        </mxCell>
        <mxCell id="rb23Qd6nBjwukMvG9wRu-22" value="10kb Nether Air" style="text;html=1;strokeColor=#001DBC;fillColor=#0050ef;align=left;verticalAlign=middle;whiteSpace=wrap;rounded=0;spacingLeft=4;spacingRight=4;fontColor=#ffffff;points=[[0,0.5,0,0,0],[1,0.5,0,0,0]];" vertex="1" parent="rb23Qd6nBjwukMvG9wRu-17">
          <mxGeometry y="120" width="250" height="30" as="geometry" />
        </mxCell>
        <mxCell id="rb23Qd6nBjwukMvG9wRu-25" style="edgeStyle=orthogonalEdgeStyle;rounded=0;orthogonalLoop=1;jettySize=auto;html=1;exitX=1;exitY=0.5;exitDx=0;exitDy=0;exitPerimeter=0;entryX=0;entryY=0.5;entryDx=0;entryDy=0;" edge="1" parent="1" source="RhfqdFK_2u-JBd3pKtDQ-7" target="rb23Qd6nBjwukMvG9wRu-19">
          <mxGeometry relative="1" as="geometry" />
        </mxCell>
      </root>
    </mxGraphModel>
  </diagram>
</mxfile>
